<svg t="1709214297173" class="icon" viewBox="0 0 1024 1024" version="1.1" xmlns="http://www.w3.org/2000/svg" p-id="4215" width="200" height="200"><path d="M948.342 581.78c-15.602-15.64-40.93-15.67-56.57-0.07L540.284 932.332c-15.594 15.594-40.974 15.594-56.604-0.036L132.23 581.71c-15.64-15.6-40.968-15.57-56.57 0.07-15.602 15.642-15.57 40.97 0.07 56.572L427.14 988.902C450.542 1012.304 481.278 1024 512.01 1024c30.72 0 61.44-11.69 84.81-35.062l351.45-350.586c15.642-15.604 15.674-40.932 0.072-56.572z" p-id="4216"></path><path d="M512 0c-22.094 0-40.002 17.908-40.002 40.002v724.036c0 22.094 17.908 40.002 40.002 40.002s40.002-17.908 40.002-40.002V40.002C552.002 17.908 534.092 0 512 0z" p-id="4217"></path></svg>
